<mxfile host="app.diagrams.net" agent="Mozilla/5.0 (Windows NT 10.0; Win64; x64) AppleWebKit/537.36 (KHTML, like Gecko) Chrome/128.0.0.0 YaBrowser/24.10.0.0 Safari/537.36" version="24.8.4">
  <diagram name="Страница — 1" id="UArTaoRlrIbJXuJ5J4J0">
    <mxGraphModel dx="2049" dy="1096" grid="1" gridSize="10" guides="1" tooltips="1" connect="1" arrows="1" fold="1" page="1" pageScale="1" pageWidth="827" pageHeight="1169" math="0" shadow="0">
      <root>
        <mxCell id="0" />
        <mxCell id="1" parent="0" />
        <mxCell id="ssbdaMYTeK3fw_wYWS9l-1" value="&lt;font style=&quot;font-size: 20px;&quot;&gt;Отображает список папок с каналами.&amp;nbsp;&lt;/font&gt;" style="rounded=1;whiteSpace=wrap;html=1;arcSize=10;" parent="1" vertex="1">
          <mxGeometry x="80" y="360" width="320" height="600" as="geometry" />
        </mxCell>
        <mxCell id="ssbdaMYTeK3fw_wYWS9l-2" value="" style="ellipse;whiteSpace=wrap;html=1;aspect=fixed;fillColor=#eeeeee;strokeColor=#36393d;" parent="1" vertex="1">
          <mxGeometry x="210" y="890" width="60" height="60" as="geometry" />
        </mxCell>
        <mxCell id="ssbdaMYTeK3fw_wYWS9l-3" value="&lt;div style=&quot;&quot;&gt;&lt;span style=&quot;font-size: 20px; background-color: initial;&quot;&gt;1. Про&lt;/span&gt;&lt;span style=&quot;background-color: initial; white-space-collapse: preserve;&quot;&gt;&lt;font style=&quot;font-size: 20px;&quot;&gt;веряет наличие изменений&lt;/font&gt;&lt;/span&gt;&lt;span style=&quot;background-color: initial; font-size: 20px;&quot;&gt;.&lt;/span&gt;&lt;/div&gt;&lt;div&gt;&lt;div&gt;&lt;div style=&quot;&quot;&gt;&lt;span style=&quot;font-size: 20px;&quot;&gt;2.&amp;nbsp;&lt;/span&gt;&lt;span style=&quot;font-size: 20px;&quot;&gt;Вносит выбранные каналы в папк(у/и)&lt;/span&gt;&lt;span style=&quot;font-size: 20px;&quot;&gt;.&lt;/span&gt;&lt;/div&gt;&lt;/div&gt;&lt;/div&gt;&lt;div style=&quot;&quot;&gt;&lt;span style=&quot;font-size: 20px;&quot;&gt;3.&amp;nbsp;&lt;/span&gt;&lt;span style=&quot;font-size: 20px; background-color: initial;&quot;&gt;Возвращает на&amp;nbsp;&lt;/span&gt;&lt;span style=&quot;background-color: initial; font-size: 20px;&quot;&gt;предшествующий&amp;nbsp;&lt;/span&gt;&lt;span style=&quot;background-color: initial; font-size: 20px;&quot;&gt;экран&lt;/span&gt;&lt;span style=&quot;background-color: initial; font-size: 20px;&quot;&gt;.&lt;/span&gt;&lt;/div&gt;" style="rounded=1;whiteSpace=wrap;html=1;align=center;" parent="1" vertex="1">
          <mxGeometry x="560" y="360" width="400" height="600" as="geometry" />
        </mxCell>
        <mxCell id="ssbdaMYTeK3fw_wYWS9l-4" value="&lt;font style=&quot;font-size: 30px;&quot;&gt;&lt;b&gt;PG&lt;/b&gt;&lt;/font&gt;" style="shape=datastore;whiteSpace=wrap;html=1;" parent="1" vertex="1">
          <mxGeometry x="1120" y="360" width="430" height="600" as="geometry" />
        </mxCell>
        <mxCell id="ssbdaMYTeK3fw_wYWS9l-5" value="&lt;font color=&quot;#666666&quot; style=&quot;font-size: 27px;&quot;&gt;Frontend&lt;/font&gt;&lt;div style=&quot;font-size: 27px;&quot;&gt;&lt;font color=&quot;#666666&quot; style=&quot;font-size: 27px;&quot;&gt;(Mobile)&lt;/font&gt;&lt;/div&gt;" style="text;html=1;align=center;verticalAlign=middle;resizable=0;points=[];autosize=1;strokeColor=none;fillColor=none;" parent="1" vertex="1">
          <mxGeometry x="170" y="250" width="130" height="80" as="geometry" />
        </mxCell>
        <mxCell id="ssbdaMYTeK3fw_wYWS9l-6" value="&lt;font color=&quot;#666666&quot;&gt;&lt;span style=&quot;font-size: 27px;&quot;&gt;Backend&lt;/span&gt;&lt;/font&gt;&lt;br&gt;&lt;div style=&quot;font-size: 27px;&quot;&gt;&lt;font color=&quot;#666666&quot; style=&quot;font-size: 27px;&quot;&gt;(Server)&lt;/font&gt;&lt;/div&gt;" style="text;html=1;align=center;verticalAlign=middle;resizable=0;points=[];autosize=1;strokeColor=none;fillColor=none;" parent="1" vertex="1">
          <mxGeometry x="697" y="250" width="130" height="80" as="geometry" />
        </mxCell>
        <mxCell id="ssbdaMYTeK3fw_wYWS9l-7" value="&lt;font color=&quot;#666666&quot;&gt;&lt;span style=&quot;font-size: 27px;&quot;&gt;Реляционная БД&lt;/span&gt;&lt;/font&gt;&lt;div&gt;&lt;font color=&quot;#666666&quot;&gt;&lt;span style=&quot;font-size: 27px;&quot;&gt;(PostgreSQL)&lt;/span&gt;&lt;/font&gt;&lt;/div&gt;" style="text;html=1;align=center;verticalAlign=middle;resizable=0;points=[];autosize=1;strokeColor=none;fillColor=none;" parent="1" vertex="1">
          <mxGeometry x="1215" y="250" width="240" height="80" as="geometry" />
        </mxCell>
        <mxCell id="ssbdaMYTeK3fw_wYWS9l-8" value="&lt;font style=&quot;&quot;&gt;&lt;b style=&quot;font-size: 20px;&quot;&gt;US:&amp;nbsp;&lt;/b&gt;&lt;span style=&quot;font-size: 20px;&quot;&gt;&lt;b&gt;Как пользователь мобильного приложения YouTube,&lt;/b&gt;&lt;/span&gt;&lt;br&gt;&lt;span style=&quot;font-size: 20px;&quot;&gt;&lt;b&gt;Я хочу иметь возможность группировать ряд каналов по папкам.&lt;/b&gt;&lt;/span&gt;&lt;br&gt;&lt;span style=&quot;font-size: 20px;&quot;&gt;&lt;b&gt;Для ускорения процесса нахождения интересующего меня контента, а также отделения обучающих видео от развлекательных.&lt;/b&gt;&lt;/span&gt;&lt;br&gt;&lt;/font&gt;" style="text;whiteSpace=wrap;html=1;" parent="1" vertex="1">
          <mxGeometry x="405" y="70" width="910" height="70" as="geometry" />
        </mxCell>
        <mxCell id="ssbdaMYTeK3fw_wYWS9l-9" value="&lt;font color=&quot;#666666&quot;&gt;&lt;span style=&quot;font-size: 27px;&quot;&gt;A&lt;/span&gt;&lt;/font&gt;" style="text;html=1;align=center;verticalAlign=middle;resizable=0;points=[];autosize=1;strokeColor=none;fillColor=none;" parent="1" vertex="1">
          <mxGeometry x="210" y="190" width="40" height="50" as="geometry" />
        </mxCell>
        <mxCell id="ssbdaMYTeK3fw_wYWS9l-10" value="&lt;font color=&quot;#666666&quot;&gt;&lt;span style=&quot;font-size: 27px;&quot;&gt;B&lt;/span&gt;&lt;/font&gt;" style="text;html=1;align=center;verticalAlign=middle;resizable=0;points=[];autosize=1;strokeColor=none;fillColor=none;" parent="1" vertex="1">
          <mxGeometry x="740" y="190" width="40" height="50" as="geometry" />
        </mxCell>
        <mxCell id="ssbdaMYTeK3fw_wYWS9l-11" value="&lt;font color=&quot;#666666&quot;&gt;&lt;span style=&quot;font-size: 27px;&quot;&gt;C&lt;/span&gt;&lt;/font&gt;" style="text;html=1;align=center;verticalAlign=middle;resizable=0;points=[];autosize=1;strokeColor=none;fillColor=none;" parent="1" vertex="1">
          <mxGeometry x="1315" y="190" width="40" height="50" as="geometry" />
        </mxCell>
        <mxCell id="ssbdaMYTeK3fw_wYWS9l-12" value="1" style="html=1;shadow=0;dashed=0;align=center;verticalAlign=middle;shape=mxgraph.arrows2.twoWayArrow;dy=0.65;dx=22;fontStyle=1" parent="1" vertex="1">
          <mxGeometry x="400" y="650" width="160" height="40" as="geometry" />
        </mxCell>
        <mxCell id="ssbdaMYTeK3fw_wYWS9l-13" value="2" style="html=1;shadow=0;dashed=0;align=center;verticalAlign=middle;shape=mxgraph.arrows2.twoWayArrow;dy=0.65;dx=22;fontStyle=1" parent="1" vertex="1">
          <mxGeometry x="960" y="650" width="160" height="40" as="geometry" />
        </mxCell>
        <mxCell id="ssbdaMYTeK3fw_wYWS9l-14" value="&lt;font style=&quot;font-size: 23px;&quot;&gt;https&lt;/font&gt;" style="text;html=1;align=center;verticalAlign=middle;resizable=0;points=[];autosize=1;strokeColor=none;fillColor=none;" parent="1" vertex="1">
          <mxGeometry x="445" y="610" width="70" height="40" as="geometry" />
        </mxCell>
        <mxCell id="ssbdaMYTeK3fw_wYWS9l-15" value="&lt;span style=&quot;font-size: 23px;&quot;&gt;TCP/IP&lt;/span&gt;" style="text;html=1;align=center;verticalAlign=middle;resizable=0;points=[];autosize=1;strokeColor=none;fillColor=none;" parent="1" vertex="1">
          <mxGeometry x="990" y="610" width="100" height="40" as="geometry" />
        </mxCell>
        <mxCell id="ssbdaMYTeK3fw_wYWS9l-16" value="&lt;font style=&quot;font-size: 21px;&quot;&gt;A - фронтенд (мобильное приложение)&lt;/font&gt;&lt;div style=&quot;font-size: 21px;&quot;&gt;&lt;font style=&quot;font-size: 21px;&quot;&gt;B - бэкенд/сервер&lt;/font&gt;&lt;/div&gt;&lt;div style=&quot;font-size: 21px;&quot;&gt;&lt;font style=&quot;font-size: 21px;&quot;&gt;C - Реляционная база данных, PG&lt;/font&gt;&lt;/div&gt;" style="text;html=1;align=left;verticalAlign=middle;resizable=0;points=[];autosize=1;strokeColor=none;fillColor=none;" parent="1" vertex="1">
          <mxGeometry x="80" y="1050" width="410" height="90" as="geometry" />
        </mxCell>
        <mxCell id="ssbdaMYTeK3fw_wYWS9l-17" value="&lt;br&gt;&lt;div&gt;&lt;span style=&quot;font-size: 21px;&quot;&gt;1 - протокол взаимодействия https&lt;/span&gt;&lt;br&gt;&lt;/div&gt;&lt;div&gt;&lt;span style=&quot;font-size: 21px;&quot;&gt;2 - протокол взаимодействия PostgreSQL protocol (TCP/IP)&lt;/span&gt;&lt;span style=&quot;font-size: 21px;&quot;&gt;&lt;br&gt;&lt;/span&gt;&lt;/div&gt;" style="text;html=1;align=left;verticalAlign=middle;resizable=0;points=[];autosize=1;strokeColor=none;fillColor=none;" parent="1" vertex="1">
          <mxGeometry x="911" y="1045" width="600" height="80" as="geometry" />
        </mxCell>
      </root>
    </mxGraphModel>
  </diagram>
</mxfile>
